<svg width="44" height="44" viewBox="0 0 44 44" fill="none" xmlns="http://www.w3.org/2000/svg">
<path d="M29.04 8.44801C29.04 7.74401 28.336 7.04001 27.632 7.04001H16.368C15.664 7.04001 14.96 7.74401 14.96 8.44801V8.80001H29.04V8.44801Z" fill="#999999"/>
<path d="M32.5599 11.968C32.5599 11.264 31.8559 10.56 31.1519 10.56H12.8479C12.1439 10.56 11.4399 11.264 11.4399 11.968V12.32H32.5599V11.968Z" fill="#999999"/>
<path d="M18.48 30.976L27.28 25.52L18.48 20.064V30.976Z" fill="#999999"/>
<path d="M32.2079 14.08H11.6159C9.67992 14.08 7.91992 15.84 7.91992 17.776V33.264C7.91992 35.2 9.67992 36.96 11.6159 36.96H32.3839C34.3199 36.96 36.0799 35.2 36.0799 33.088V17.776C36.0799 15.84 34.3199 14.08 32.2079 14.08ZM34.1439 17.776V33.264C34.1439 34.32 33.2639 35.2 32.2084 35.2H11.6159C10.5599 35.2 9.67992 34.32 9.67992 33.088V17.776C9.67992 16.72 10.5599 15.84 11.6159 15.84H32.3839C33.4399 15.84 34.3199 16.72 34.1439 17.776Z" fill="#999999"/>
</svg>
