<svg width="60" height="126" viewBox="0 0 60 126" fill="none" xmlns="http://www.w3.org/2000/svg">
<rect y="66" width="60" height="60" rx="10" fill="#EBF2FF"/>
<path fill-rule="evenodd" clip-rule="evenodd" d="M38.6439 16.828V11.004L43.5999 8.00802V19.824L38.6439 16.828ZM36.4319 21.308H19.9119C19.0719 21.308 18.3999 20.664 18.3999 19.852V8.14802C18.3999 7.33602 19.0719 6.69202 19.9119 6.69202H36.4319C37.2719 6.69202 37.9439 7.33602 37.9439 8.14802V19.824C37.9439 20.664 37.2719 21.308 36.4319 21.308ZM34.9199 9.80002C34.9199 9.49202 34.6679 9.24002 34.3599 9.24002H31.1119C30.8039 9.24002 30.5519 9.49202 30.5519 9.80002V10.36C30.5519 10.668 30.8039 10.92 31.1119 10.92H34.3319C34.6399 10.92 34.8919 10.668 34.8919 10.36V9.80002H34.9199Z" fill="#999999"/>
</svg>
